<svg viewBox="0 0 227 227" fill="none" xmlns="http://www.w3.org/2000/svg">
<path d="M105.678 0.885743C78.6649 2.89346 54.0247 14.0011 34.6777 32.9049C9.22921 57.7275 -2.97352 92.8756 1.53732 128.18C7.16935 172.324 38.302 209.088 81.0637 222.099C114.126 232.164 150.917 226.193 178.946 206.246C213.39 181.71 231.303 141.009 225.984 99.342C220.352 55.1983 189.22 18.4337 146.458 5.42266C133.734 1.5376 118.897 -0.105078 105.678 0.885743ZM137.749 80.5946C145.206 82.498 149.874 85.288 154.254 90.4507C159.104 96.187 161.555 101.141 162.311 106.721L162.598 109.042L163.276 108.703C164.371 108.155 167.943 107.634 170.342 107.66C172.793 107.686 176.052 108.52 178.633 109.798C182.44 111.649 186.69 117.464 187.525 121.974C187.916 124.086 187.864 127.893 187.42 129.979C186.821 132.847 184.917 136.237 182.571 138.584C180.902 140.252 180.172 140.774 177.877 141.869C176.391 142.573 174.592 143.329 173.862 143.512C172.819 143.772 166.926 143.851 145.65 143.903L118.767 143.929L118.011 143.329L117.281 142.756V112.953C117.281 93.5014 117.359 83.0717 117.542 82.837C117.828 82.4459 119.028 82.0026 122.626 80.8554C127.293 79.3952 132.691 79.317 137.749 80.5946ZM115.299 85.0272C115.873 85.6009 116.42 124.451 115.977 134.62C115.586 143.772 115.508 144.007 113.005 143.772C111.753 143.668 111.544 142.964 111.179 138.036C110.762 132.013 111.049 87.035 111.544 85.6269C111.727 85.0533 112.17 84.5579 112.692 84.2711C113.5 83.8278 113.604 83.8278 114.256 84.245C114.621 84.4797 115.091 84.8447 115.299 85.0272ZM108.676 88.0518C109.276 88.4951 109.198 86.8264 109.745 108.677C109.954 117.698 110.058 126.094 109.98 127.32C109.902 128.545 109.719 132.43 109.615 135.95C109.432 141.452 109.328 142.469 108.911 143.068C108.337 143.981 107.581 144.268 106.669 143.955C105.834 143.668 105.626 143.095 105.547 141.139C105.391 137.28 104.869 129.145 104.687 128.102C104.478 126.85 105.287 90.7636 105.547 89.3295C105.808 87.8954 107.529 87.1914 108.676 88.0518ZM90.3722 93.2145C90.4765 93.5274 90.659 101.271 90.8415 110.424C91.2066 129.979 90.9197 142.052 90.0593 143.225C89.5117 144.007 87.6865 144.32 87.6865 143.642C87.6865 143.407 87.5822 143.225 87.4519 143.225C87.3476 143.225 87.2172 142.599 87.2172 141.843C87.1911 141.113 86.9304 137.462 86.6175 133.786L86.0699 127.085L86.6175 112.275C86.9043 104.14 87.1911 96.4477 87.2172 95.1701C87.2694 92.7974 87.478 92.3019 88.5991 92.0673C89.2771 91.9369 90.1897 92.5105 90.3722 93.2145ZM96.3171 92.9799C96.3171 93.0059 96.3693 94.44 96.4475 96.1609C96.4996 97.8818 96.7864 105.469 97.0733 113.031L97.5947 126.798L97.0733 133.473C96.7604 137.15 96.4996 140.852 96.4736 141.713C96.4475 143.381 96.1867 143.772 95.0134 143.903C93.2143 144.111 93.0057 142.938 92.7449 130.449C92.5363 120.358 93.0318 94.5183 93.4489 93.5796C93.8401 92.7452 94.6744 92.3802 95.587 92.6931C95.9781 92.8495 96.291 92.9799 96.3171 92.9799ZM83.7754 93.5535C83.7754 93.7621 83.8536 93.9446 83.984 93.9446C84.0883 93.9446 84.1926 94.9615 84.2187 96.2392C84.2708 97.4907 84.5837 104.896 84.9748 112.692L85.6528 126.85L84.9748 133.812C84.6098 137.619 84.2708 141.243 84.2187 141.869C84.0622 143.903 82.6803 144.607 81.6373 143.199C81.2462 142.677 81.1158 141.348 80.7247 135.012C80.3336 128.206 80.3336 126.146 80.6204 114.413C81.0637 97.3864 81.2201 94.1011 81.6634 93.5796C82.1327 93.032 83.7754 93.0059 83.7754 93.5535ZM102.914 95.0658C103.018 95.3787 103.227 102.732 103.383 111.388C103.722 128.832 103.461 141.243 102.731 143.016C102.392 143.851 102.262 143.929 101.167 143.955C99.8371 144.007 99.6807 143.799 99.5242 141.53C99.4721 140.8 99.1853 137.28 98.8985 133.656L98.3509 127.085L98.8724 113.187C99.1853 105.548 99.446 98.2469 99.4721 96.9953C99.5503 94.5183 99.7589 94.075 100.984 93.8925C101.793 93.7621 102.705 94.3097 102.914 95.0658ZM77.8826 97.0214C77.9609 97.5689 78.2216 104.635 78.4563 112.744C78.8735 126.459 78.8735 127.971 78.4563 134.516C78.2216 138.375 78.0391 141.869 78.0391 142.26C78.0391 142.99 77.0483 144.268 76.4746 144.268C75.8749 144.268 75.3795 143.225 75.2752 141.765C75.197 140.904 74.9363 137.358 74.6494 133.838C74.1801 128.232 74.154 126.642 74.3887 120.671C74.5191 116.942 74.7798 110.085 74.9102 105.443C75.0666 100.802 75.3013 96.7867 75.4317 96.526C75.6924 96.0566 76.5268 95.7959 77.309 95.9784C77.5697 96.0566 77.8044 96.4477 77.8826 97.0214ZM71.5205 101.923C71.5205 102.132 71.5988 102.288 71.7291 102.288C71.8334 102.288 71.9377 103.071 71.9638 104.061C71.9899 105.026 72.3288 110.554 72.6939 116.368L73.3718 126.929L72.5896 135.09C72.1724 139.601 71.677 143.407 71.5466 143.59C71.3119 143.877 70.8687 143.903 69.9561 143.772C69.3824 143.668 69.1738 141.973 68.7567 134.725C68.3655 127.633 68.3395 125.807 68.6263 119.367C68.8088 115.352 69.0435 109.954 69.1738 107.373C69.2781 104.791 69.4607 102.471 69.565 102.21C69.93 101.324 71.5205 101.089 71.5205 101.923ZM59.6828 111.31C59.7089 111.884 60.1261 115.586 60.5694 119.55L61.4037 126.798L60.5954 133.89C60.1522 137.801 59.735 141.53 59.7089 142.182C59.6307 143.277 59.5785 143.355 58.8224 143.433C58.0141 143.512 58.0141 143.512 57.8576 141.999C57.7794 141.165 57.4665 137.384 57.1797 133.577L56.6582 126.668L57.284 118.585C57.8316 111.753 57.988 110.476 58.3791 110.189C59.0571 109.693 59.6307 110.163 59.6828 111.31ZM53.7901 110.893C53.9465 111.18 54.3376 114.934 54.6766 119.237L55.3024 127.059L54.6766 134.49C54.3376 138.584 53.9465 142.182 53.7901 142.469C53.3989 143.147 52.382 143.042 52.3038 142.312C52.2778 142.025 51.8866 138.505 51.4173 134.49L50.5569 127.189L51.3912 119.628C51.8606 115.482 52.2256 111.753 52.2256 111.362C52.2256 110.345 53.3207 110.006 53.7901 110.893ZM65.4713 111.362C66.0449 111.936 66.1232 112.77 66.5925 121.714C66.8793 126.902 66.8532 128.728 66.4621 135.272C66.0449 142.469 65.9928 142.86 65.4192 143.433C64.7412 144.111 64.0372 143.981 63.8286 143.121C63.7504 142.834 63.3593 139.105 62.916 134.881L62.1599 127.189L62.9421 119.367C63.5679 113.083 63.8026 111.493 64.1676 111.206C64.7152 110.789 64.9238 110.815 65.4713 111.362ZM47.5583 113.161C47.6105 113.97 47.9234 115.821 48.7056 120.54C49.201 123.539 49.6182 126.355 49.6182 126.85C49.6182 127.606 47.8712 139.418 47.6365 140.279C47.5062 140.774 46.5414 140.67 46.385 140.148C46.0982 139.236 45.4463 128.936 45.4463 125.234C45.4724 123.148 45.6288 120.28 45.8374 118.845C46.046 117.411 46.2285 115.769 46.2285 115.195C46.2285 114.621 46.4111 113.865 46.6457 113.552C47.0368 112.979 47.5062 112.796 47.5583 113.161ZM42.4478 118.767C42.4999 119.106 42.8128 121.114 43.0996 123.226L43.6472 127.085L43.0996 130.657C42.3435 135.663 42.3435 135.663 41.8481 135.663C41.483 135.663 41.2484 134.881 40.5965 131.361L39.8143 127.059L40.5704 122.809C40.9876 120.488 41.4569 118.507 41.6134 118.402C42.1088 118.089 42.2913 118.168 42.4478 118.767Z" fill="#FF3A00"/>
</svg>
